<svg width="126" height="213" viewBox="0 0 126 213" fill="none" xmlns="http://www.w3.org/2000/svg">
<path id="Bottom" fill-rule="evenodd" clip-rule="evenodd" d="M17.2445 -6.89994e-06C77.112 -3.09076e-06 125.688 46.8831 125.688 106.499C125.688 166.115 77.112 212.998 17.2445 212.998C7.91072 212.998 0.344181 165.317 0.344185 106.499C0.344189 47.6811 7.91074 -7.49382e-06 17.2445 -6.89994e-06ZM67.2621 14.9876C100.376 32.3207 122.872 66.4726 122.872 106.499C122.872 146.525 100.376 180.677 67.262 198.01C95.5469 179.534 114.422 145.721 114.422 106.499C114.422 67.277 95.547 33.4641 67.2621 14.9876ZM111.605 106.499C111.605 65.4727 90.5301 30.7351 59.867 13.8234C85.798 32.05 103.155 66.5288 103.155 106.499C103.155 146.469 85.7979 180.948 59.8669 199.174C90.5301 182.263 111.605 147.525 111.605 106.499ZM52.6908 12.5744C80.7656 28.9535 100.338 64.3331 100.338 106.499C100.338 148.665 80.7656 184.044 52.6908 200.423C59.1706 195.481 65.0602 189.222 70.1849 181.905C83.624 162.717 91.8878 136.154 91.8878 106.499C91.8878 76.8436 83.624 50.2803 70.1849 31.0923C65.0602 23.7754 59.1707 17.5172 52.6908 12.5744ZM67.8739 32.6946C61.5592 23.6786 54.1115 16.3963 45.8843 11.2775C52.0114 16.4336 57.5381 23.1877 62.2757 31.1817C73.64 50.3575 80.6209 76.8878 80.6209 106.499C80.6209 136.11 73.64 162.64 62.2757 181.816C57.5381 189.81 52.0113 196.564 45.8842 201.72C54.1114 196.601 61.5592 189.319 67.8739 180.303C80.9406 161.647 89.071 135.661 89.071 106.499C89.071 77.3364 80.9406 51.3509 67.8739 32.6946ZM39.5902 10.0302C47.183 15.1532 54.065 22.8449 59.8494 32.6052C70.913 51.2737 77.8041 77.2922 77.8041 106.499C77.8041 135.706 70.913 161.724 59.8493 180.392C54.065 190.153 47.1829 197.844 39.5901 202.967C45.1747 197.634 50.1616 190.38 54.364 181.713C63.651 162.56 69.354 136.068 69.354 106.499C69.354 76.9297 63.651 50.4374 54.3641 31.2845C50.1616 22.6176 45.1747 15.3638 39.5902 10.0302ZM51.8271 32.5023C46.6939 21.9158 40.542 13.8288 33.7947 8.78643C38.6081 14.2111 42.8811 21.9451 46.4473 31.4011C53.6575 50.5195 58.0871 76.969 58.0871 106.499C58.0871 136.029 53.6575 162.478 46.4473 181.597C42.8811 191.053 38.6081 198.787 33.7947 204.211C40.542 199.169 46.6939 191.082 51.8271 180.495C60.8904 161.804 66.5372 135.747 66.5372 106.499C66.5372 77.2503 60.8904 51.1938 51.8271 32.5023ZM28.5539 7.54166C29.5618 8.40621 30.559 9.38765 31.5435 10.4848C36.1045 15.5678 40.2771 23.0177 43.8101 32.3857C50.8723 51.1117 55.2703 77.211 55.2703 106.499C55.2703 135.787 50.8723 161.886 43.8101 180.612C40.2771 189.98 36.1045 197.43 31.5435 202.513C30.559 203.61 29.5618 204.591 28.5538 205.456C28.8386 205.05 29.1193 204.631 29.3959 204.2C32.8756 198.771 35.956 190.993 38.5221 181.467C43.6599 162.395 46.8202 135.992 46.8202 106.499C46.8202 77.0058 43.6599 50.6031 38.5221 31.5306C35.956 22.0046 32.8756 14.2271 29.396 8.79808C29.1194 8.36653 28.8386 7.94744 28.5539 7.54166ZM27.0211 10.305C25.4333 7.8277 23.8371 5.99789 22.2589 4.7658C29.1443 18.2276 34.1449 58.6833 34.1449 106.499C34.1449 154.314 29.1443 194.77 22.2589 208.232C23.8371 207 25.4333 205.17 27.021 202.693C30.2812 197.606 33.2703 190.138 35.8014 180.741C40.8582 161.97 44.0034 135.823 44.0034 106.499C44.0034 77.1742 40.8582 51.0281 35.8015 32.2562C33.2703 22.8601 30.2812 15.3915 27.0211 10.305ZM16.0686 209.122C16.7466 209.996 17.1472 210.162 17.2445 210.19C17.3419 210.162 17.7425 209.996 18.4205 209.122C19.2722 208.024 20.2158 206.229 21.1841 203.648C23.1089 198.518 24.8946 190.934 26.4126 181.368C29.4417 162.28 31.3282 135.808 31.3282 106.499C31.3282 77.1896 29.4417 50.718 26.4126 31.6299C24.8946 22.0637 23.1089 14.4796 21.1841 9.34936C20.2158 6.76859 19.2722 4.97396 18.4205 3.87576C17.7425 3.00145 17.3419 2.83606 17.2445 2.80716C17.1472 2.83606 16.7466 3.00145 16.0686 3.87576C15.2169 4.97396 14.2733 6.76859 13.305 9.34936C11.3802 14.4796 9.5945 22.0637 8.07644 31.6299C5.04734 50.718 3.16091 77.1896 3.16091 106.499C3.16091 135.808 5.04734 162.28 8.07643 181.368C9.59449 190.934 11.3802 198.518 13.305 203.648C14.2733 206.229 15.2169 208.024 16.0686 209.122Z" fill="url(#paint0_linear_388_2768)"/>
<defs>
<linearGradient id="paint0_linear_388_2768" x1="145.639" y1="105.12" x2="-5.60584" y2="106.505" gradientUnits="userSpaceOnUse">
<stop stop-color="white"/>
<stop offset="1" stop-color="white" stop-opacity="0"/>
</linearGradient>
</defs>
</svg>
