<svg width="26" height="28" viewBox="0 0 26 28" fill="none" xmlns="http://www.w3.org/2000/svg">
<g id="Group 1">
<path id="Vector" d="M24.8182 18.802V18.801V9.19902V9.19798C24.8176 8.59975 24.6581 8.01277 24.3564 7.49602C24.0548 6.97935 23.622 6.5515 23.1024 6.25444L23.0985 6.25225L14.6175 1.45346C14.6168 1.45307 14.6162 1.45269 14.6155 1.4523C14.0959 1.15574 13.5075 1 12.9091 1C12.3107 1 11.7222 1.15574 11.2027 1.45231C11.202 1.45269 11.2013 1.45308 11.2007 1.45346L2.71966 6.25225L2.71965 6.25225L2.71581 6.25445C2.1962 6.5515 1.7634 6.97935 1.46179 7.49602C1.16013 8.01277 1.00062 8.59975 1 9.19798V9.19902L0.999999 18.801L1 18.802C1.00062 19.4002 1.16013 19.9872 1.46179 20.504C1.7634 21.0207 2.1962 21.4485 2.71581 21.7456L2.71966 21.7477L11.2007 26.5465C11.2014 26.5469 11.2021 26.5473 11.2028 26.5478C11.7223 26.8443 12.3107 27 12.9091 27C13.5075 27 14.0959 26.8443 14.6154 26.5478C14.6161 26.5473 14.6168 26.5469 14.6175 26.5465L23.0985 21.7478L23.1024 21.7456C23.622 21.4485 24.0548 21.0207 24.3564 20.504C24.658 19.9872 24.8176 19.4002 24.8182 18.802Z" fill="#292D30" stroke="white" stroke-width="2" stroke-linecap="round" stroke-linejoin="round"/>
<path id="Union" fill-rule="evenodd" clip-rule="evenodd" d="M16.8888 11.4344C17.2793 11.0439 17.2793 10.4107 16.8888 10.0202C16.4983 9.62966 15.8651 9.62966 15.4746 10.0202L12.909 12.5858L10.3433 10.0202C9.95281 9.62966 9.31965 9.62966 8.92912 10.0202C8.5386 10.4107 8.5386 11.0439 8.92912 11.4344L11.4947 14L8.92912 16.5656C8.5386 16.9562 8.5386 17.5893 8.92912 17.9799C9.31965 18.3704 9.95281 18.3704 10.3433 17.9799L12.909 15.4142L15.4746 17.9799C15.8651 18.3704 16.4983 18.3704 16.8888 17.9799C17.2793 17.5893 17.2793 16.9562 16.8888 16.5656L14.3232 14L16.8888 11.4344Z" fill="white"/>
</g>
</svg>
