<svg width="104" height="28" viewBox="0 0 104 28" fill="none" xmlns="http://www.w3.org/2000/svg">
<path d="M17.395 11.8301V15.9434H4.03564V11.8301H17.395ZM5.6001 1.40625V27H0.32666V1.40625H5.6001ZM21.1567 1.40625V27H15.9009V1.40625H21.1567ZM34.1821 27.3516C32.7056 27.3516 31.3813 27.1172 30.2095 26.6484C29.0376 26.168 28.0415 25.5059 27.2212 24.6621C26.4126 23.8184 25.7915 22.8398 25.3579 21.7266C24.9243 20.6016 24.7075 19.4062 24.7075 18.1406V17.4375C24.7075 15.9961 24.9126 14.6777 25.3228 13.4824C25.7329 12.2871 26.3188 11.25 27.0806 10.3711C27.854 9.49219 28.7915 8.81836 29.8931 8.34961C30.9946 7.86914 32.2368 7.62891 33.6196 7.62891C34.9673 7.62891 36.1626 7.85156 37.2056 8.29688C38.2485 8.74219 39.1216 9.375 39.8247 10.1953C40.5396 11.0156 41.0786 12 41.4419 13.1484C41.8052 14.2852 41.9868 15.5508 41.9868 16.9453V19.0547H26.8696V15.6797H37.0122V15.293C37.0122 14.5898 36.8833 13.9629 36.6255 13.4121C36.3794 12.8496 36.0044 12.4043 35.5005 12.0762C34.9966 11.748 34.3521 11.584 33.5669 11.584C32.8989 11.584 32.3247 11.7305 31.8442 12.0234C31.3638 12.3164 30.9712 12.7266 30.6665 13.2539C30.3735 13.7812 30.1509 14.4023 29.9985 15.1172C29.8579 15.8203 29.7876 16.5938 29.7876 17.4375V18.1406C29.7876 18.9023 29.8931 19.6055 30.104 20.25C30.3267 20.8945 30.6372 21.4512 31.0356 21.9199C31.4458 22.3887 31.938 22.752 32.5122 23.0098C33.0981 23.2676 33.7603 23.3965 34.4985 23.3965C35.4126 23.3965 36.2622 23.2207 37.0474 22.8691C37.8442 22.5059 38.5298 21.9609 39.104 21.2344L41.5649 23.9062C41.1665 24.4805 40.6216 25.0312 39.9302 25.5586C39.2505 26.0859 38.4302 26.5195 37.4692 26.8594C36.5083 27.1875 35.4126 27.3516 34.1821 27.3516ZM50.2134 0V27H45.1333V0H50.2134ZM59.354 12.041V27H54.2915V7.98047H59.0376L59.354 12.041ZM58.6157 16.8223H57.2446C57.2446 15.416 57.4263 14.1504 57.7896 13.0254C58.1528 11.8887 58.6626 10.9219 59.3188 10.125C59.9751 9.31641 60.7544 8.70117 61.6567 8.2793C62.5708 7.8457 63.5903 7.62891 64.7153 7.62891C65.606 7.62891 66.4204 7.75781 67.1587 8.01562C67.897 8.27344 68.5298 8.68359 69.0571 9.24609C69.5962 9.80859 70.0063 10.5527 70.2876 11.4785C70.5806 12.4043 70.7271 13.5352 70.7271 14.8711V27H65.6294V14.8535C65.6294 14.0098 65.5122 13.3535 65.2778 12.8848C65.0435 12.416 64.6978 12.0879 64.2407 11.9004C63.7954 11.7012 63.2446 11.6016 62.5884 11.6016C61.9087 11.6016 61.3169 11.7363 60.813 12.0059C60.3208 12.2754 59.9106 12.6504 59.5825 13.1309C59.2661 13.5996 59.0259 14.1504 58.8618 14.7832C58.6978 15.416 58.6157 16.0957 58.6157 16.8223ZM83.3306 27.3516C81.854 27.3516 80.5298 27.1172 79.3579 26.6484C78.186 26.168 77.1899 25.5059 76.3696 24.6621C75.561 23.8184 74.9399 22.8398 74.5063 21.7266C74.0728 20.6016 73.856 19.4062 73.856 18.1406V17.4375C73.856 15.9961 74.061 14.6777 74.4712 13.4824C74.8813 12.2871 75.4673 11.25 76.229 10.3711C77.0024 9.49219 77.9399 8.81836 79.0415 8.34961C80.1431 7.86914 81.3853 7.62891 82.7681 7.62891C84.1157 7.62891 85.311 7.85156 86.354 8.29688C87.397 8.74219 88.27 9.375 88.9731 10.1953C89.688 11.0156 90.2271 12 90.5903 13.1484C90.9536 14.2852 91.1353 15.5508 91.1353 16.9453V19.0547H76.0181V15.6797H86.1606V15.293C86.1606 14.5898 86.0317 13.9629 85.7739 13.4121C85.5278 12.8496 85.1528 12.4043 84.6489 12.0762C84.145 11.748 83.5005 11.584 82.7153 11.584C82.0474 11.584 81.4731 11.7305 80.9927 12.0234C80.5122 12.3164 80.1196 12.7266 79.8149 13.2539C79.522 13.7812 79.2993 14.4023 79.147 15.1172C79.0063 15.8203 78.936 16.5938 78.936 17.4375V18.1406C78.936 18.9023 79.0415 19.6055 79.2524 20.25C79.4751 20.8945 79.7856 21.4512 80.1841 21.9199C80.5942 22.3887 81.0864 22.752 81.6606 23.0098C82.2466 23.2676 82.9087 23.3965 83.647 23.3965C84.561 23.3965 85.4106 23.2207 86.1958 22.8691C86.9927 22.5059 87.6782 21.9609 88.2524 21.2344L90.7134 23.9062C90.3149 24.4805 89.77 25.0312 89.0786 25.5586C88.3989 26.0859 87.5786 26.5195 86.6177 26.8594C85.6567 27.1875 84.561 27.3516 83.3306 27.3516ZM103.334 7.98047V11.5664H92.2603V7.98047H103.334ZM95.0024 3.28711H100.065V21.2695C100.065 21.8203 100.135 22.2422 100.276 22.5352C100.428 22.8281 100.651 23.0332 100.944 23.1504C101.237 23.2559 101.606 23.3086 102.051 23.3086C102.368 23.3086 102.649 23.2969 102.895 23.2734C103.153 23.2383 103.37 23.2031 103.545 23.168L103.563 26.8945C103.129 27.0352 102.661 27.1465 102.157 27.2285C101.653 27.3105 101.096 27.3516 100.487 27.3516C99.3735 27.3516 98.4009 27.1699 97.5688 26.8066C96.7485 26.4316 96.1157 25.834 95.6704 25.0137C95.2251 24.1934 95.0024 23.1152 95.0024 21.7793V3.28711Z" fill="#A74ED1"/>
</svg>
