<svg width="16" height="16" viewBox="0 0 16 16" fill="none" xmlns="http://www.w3.org/2000/svg">
<g id="Image">
<g id="Iconly/Light-Outline/Image">
<g id="Image_2">
<path id="Combined-Shape" fill-rule="evenodd" clip-rule="evenodd" d="M10.8668 1.33325C13.1235 1.33325 14.6402 2.91392 14.6402 5.26592V10.7006C14.6402 13.0526 13.1235 14.6333 10.8668 14.6333H5.10016C2.84683 14.6333 1.3335 13.0526 1.3335 10.7006V5.26592C1.3335 2.91392 2.84683 1.33325 5.10016 1.33325H10.8668ZM10.8668 2.33325H5.10016C3.4195 2.33325 2.3335 3.48459 2.3335 5.26592V10.7006C2.3335 12.4826 3.4195 13.6333 5.10016 13.6333H10.8668C12.5515 13.6333 13.6402 12.4826 13.6402 10.7006V5.26592C13.6402 3.48459 12.5515 2.33325 10.8668 2.33325ZM11.2928 8.06618C11.297 8.06962 11.3012 8.07303 11.3099 8.08115L11.3228 8.09344C11.3254 8.09596 11.3282 8.09875 11.3314 8.10184L11.3686 8.13879C11.4888 8.25917 11.8211 8.59856 12.8115 9.61552C13.0042 9.81285 13.0008 10.1295 12.8028 10.3222C12.6055 10.5162 12.2882 10.5102 12.0955 10.3129C12.0955 10.3129 10.7295 8.91085 10.6322 8.81618C10.5288 8.73152 10.3628 8.68219 10.1995 8.69819C10.0335 8.71485 9.88416 8.79419 9.77816 8.92285C8.22883 10.8022 8.21016 10.8202 8.18483 10.8449C7.61283 11.4062 6.6895 11.3969 6.1275 10.8235C6.1275 10.8235 5.5075 10.1942 5.49683 10.1815C5.34283 10.0389 5.06816 10.0482 4.9035 10.2222L3.8835 11.2975C3.78483 11.4015 3.65283 11.4535 3.52083 11.4535C3.39683 11.4535 3.2735 11.4082 3.17683 11.3162C2.97616 11.1269 2.96816 10.8095 3.15816 10.6102L4.17683 9.53485C4.71616 8.96219 5.62616 8.93419 6.2015 9.47419L6.84016 10.1222C7.01816 10.3022 7.3075 10.3055 7.48616 10.1295C7.5535 10.0502 9.0055 8.28685 9.0055 8.28685C9.2815 7.95219 9.67083 7.74552 10.1035 7.70285C10.5368 7.66485 10.9575 7.79085 11.2928 8.06618ZM5.70563 4.41919C6.62696 4.41985 7.37563 5.16919 7.37563 6.08852C7.37563 7.00919 6.6263 7.75852 5.70563 7.75852C4.78496 7.75852 4.0363 7.00919 4.0363 6.08852C4.0363 5.16785 4.78496 4.41919 5.70563 4.41919ZM5.70496 5.41919C5.3363 5.41919 5.0363 5.71919 5.0363 6.08852C5.0363 6.45785 5.3363 6.75852 5.70563 6.75852C6.07496 6.75852 6.37563 6.45785 6.37563 6.08852C6.37563 5.71985 6.07496 5.41985 5.70496 5.41919Z" fill="black" fill-opacity="0.46"/>
</g>
</g>
</g>
</svg>
