<svg width="22" height="21" viewBox="0 0 22 21" fill="none" xmlns="http://www.w3.org/2000/svg">
<g id="uiw:like-o" clip-path="url(#clip0_388_1629)">
<path id="Vector" d="M20.5042 9.96977V17.4846H17.1712L17.0029 17.5035C13.9086 18.1923 11.8582 18.689 10.8363 18.9966C9.47891 19.4051 8.97291 19.5048 8.05221 19.5636C7.36361 19.6088 6.58151 19.3557 6.22511 19.0092C6.02821 18.8181 5.88081 18.4254 5.82251 17.8164C5.81044 17.6887 5.76261 17.5665 5.68404 17.4625C5.60546 17.3585 5.49904 17.2765 5.37591 17.2253C5.10201 17.1119 4.87431 16.9271 4.68401 16.6583C4.50801 16.4126 4.39361 15.9548 4.37271 15.2922C4.36904 15.1704 4.33286 15.0515 4.26761 14.9468C4.20235 14.8421 4.11018 14.755 3.99981 14.6937C3.35961 14.3399 3.04281 13.9409 2.97681 13.4726C2.90421 12.9549 3.08021 12.3722 3.54111 11.7086C3.64925 11.5529 3.68953 11.3632 3.65337 11.1796C3.61722 10.9961 3.50749 10.8333 3.34751 10.7258C2.90641 10.4297 2.66441 10.0181 2.60391 9.43427C2.50711 8.50397 3.12861 7.81622 4.53551 7.67867C5.78856 7.56037 7.0537 7.66107 8.26891 7.97582C8.40676 8.01021 8.55203 8.0063 8.68763 7.96455C8.82324 7.9228 8.94353 7.84496 9.03435 7.74017C9.12518 7.63538 9.18276 7.50801 9.20033 7.37305C9.2179 7.23808 9.19471 7.10114 9.13351 6.97832C8.58351 5.86742 8.27771 4.95077 8.20621 4.24097C8.11271 3.29912 8.34041 2.61662 8.87281 2.05382C9.27651 1.62752 9.92221 1.38392 10.1642 1.43432C10.4832 1.49942 10.6911 1.67582 10.9617 2.29322C11.1212 2.65862 11.1982 2.96942 11.3302 3.69497C11.4567 4.38377 11.526 4.69457 11.6701 5.10197C12.1046 6.33677 13.1705 7.61672 14.6016 8.49977C15.6046 9.11792 16.6916 9.60193 17.8323 9.93827C17.9036 9.95924 17.9777 9.96986 18.0523 9.96977H20.5042ZM20.5504 18.9158C20.9057 18.9252 21.2247 18.8496 21.492 18.6711C21.833 18.4433 21.9936 18.0842 21.9969 17.6705L21.9936 9.98132C22.031 9.57182 21.9045 9.19592 21.6053 8.91662C21.3248 8.65412 20.9585 8.53022 20.5713 8.53862H18.1678C17.1956 8.24291 16.2686 7.82558 15.4112 7.29752C14.2584 6.58562 13.4092 5.56502 13.0847 4.64522C12.9736 4.32812 12.9142 4.06562 12.802 3.44822C12.6502 2.61977 12.5556 2.23442 12.3378 1.73882C11.8868 0.707719 11.295 0.203719 10.4788 0.0346693C9.67581 -0.131231 8.50651 0.310819 7.76731 1.09202C6.94781 1.95722 6.58591 3.03977 6.72011 4.37747C6.77731 4.95287 6.94451 5.59652 7.21951 6.31367C6.28036 6.18302 5.32792 6.16328 4.38371 6.25487C2.17601 6.47012 0.936312 7.84247 1.11671 9.57707C1.19591 10.3247 1.47971 10.9599 1.96261 11.4587C1.55671 12.2052 1.39501 12.9434 1.49621 13.6637C1.61281 14.4932 2.09681 15.1841 2.90201 15.7206C2.96471 16.4483 3.13961 17.0289 3.44981 17.4636C3.69423 17.8148 4.01314 18.1131 4.38591 18.3393C4.50471 19.0575 4.75441 19.6193 5.16251 20.0141C5.83901 20.6714 7.04791 21.063 8.15231 20.9916C9.20061 20.9244 9.82101 20.8026 11.284 20.3616C12.2487 20.0708 14.2463 19.5878 17.257 18.9158H20.5515H20.5504ZM18.6793 9.64322C18.6796 9.54928 18.6605 9.45621 18.623 9.36934C18.5855 9.28247 18.5305 9.20351 18.461 9.13699C18.3915 9.07046 18.309 9.01768 18.2181 8.98167C18.1272 8.94565 18.0297 8.92712 17.9313 8.92712C17.8331 8.92739 17.7359 8.94613 17.6452 8.98227C17.5546 9.01841 17.4723 9.07123 17.403 9.13773C17.3338 9.20422 17.2789 9.28309 17.2416 9.36982C17.2043 9.45655 17.1852 9.54945 17.1855 9.64322V17.7051C17.1854 17.7989 17.2046 17.8918 17.242 17.9784C17.2795 18.0651 17.3345 18.1439 17.4038 18.2103C17.4732 18.2767 17.5556 18.3294 17.6462 18.3654C17.7369 18.4014 17.8342 18.42 17.9324 18.4202C18.0306 18.42 18.1279 18.4014 18.2186 18.3654C18.3093 18.3294 18.3917 18.2767 18.461 18.2103C18.5304 18.1439 18.5853 18.0651 18.6228 17.9784C18.6603 17.8918 18.6795 17.7989 18.6793 17.7051V9.64322Z" fill="black"/>
</g>
<defs>
<clipPath id="clip0_388_1629">
<rect width="22" height="21" fill="white" transform="matrix(-1 0 0 1 22 0)"/>
</clipPath>
</defs>
</svg>
