<svg width="22" height="24" viewBox="0 0 22 24" fill="none" xmlns="http://www.w3.org/2000/svg">
<g id="Plus">
<g id="Iconly/Light outline/Plus">
<g id="Plus_2">
<path id="Vector" d="M14.9597 2C18.061 2 20.1185 4.41665 20.1185 7.89317V16.1068C20.1185 19.5833 18.061 22 14.9597 22H6.9877C3.88647 22 1.82898 19.5833 1.82898 16.1068V7.89317C1.82898 4.4199 3.8919 2 6.9877 2H14.9597ZM14.9597 3.39535H6.9877C4.61742 3.39535 3.10499 5.16949 3.10499 7.89317V16.1068C3.10499 18.8341 4.61238 20.6047 6.9877 20.6047H14.9597C17.3351 20.6047 18.8424 18.8341 18.8424 16.1068V7.89317C18.8424 5.16587 17.3351 3.39535 14.9597 3.39535ZM10.9737 7.88587C11.2967 7.88587 11.5637 8.14834 11.6059 8.48887L11.6117 8.58354L11.6111 11.293L14.0929 11.2935C14.4452 11.2935 14.7309 11.6058 14.7309 11.9911C14.7309 12.3444 14.4908 12.6363 14.1794 12.6825L14.0929 12.6888L11.6111 12.688L11.6117 15.3988C11.6117 15.7841 11.3261 16.0964 10.9737 16.0964C10.6507 16.0964 10.3838 15.834 10.3415 15.4934L10.3357 15.3988L10.3354 12.688L7.85458 12.6888C7.50222 12.6888 7.21658 12.3765 7.21658 11.9911C7.21658 11.6379 7.4566 11.346 7.76801 11.2998L7.85458 11.2935L10.3354 11.293L10.3357 8.58354C10.3357 8.19823 10.6214 7.88587 10.9737 7.88587Z" fill="#666666"/>
</g>
</g>
</g>
</svg>
