<svg width="100" height="100" viewBox="0 0 100 100" fill="none" xmlns="http://www.w3.org/2000/svg">
    <circle cx="50" cy="50" r="50" fill="#7CC9D1" />
    <path
        d="M50.5 30C49.0792 30 47.7166 30.5644 46.7119 31.5691C45.7073 32.5737 45.1429 33.9363 45.1429 35.3571V49.6429C45.1429 51.0637 45.7073 52.4263 46.7119 53.4309C47.7166 54.4356 49.0792 55 50.5 55C51.9208 55 53.2834 54.4356 54.2881 53.4309C55.2927 52.4263 55.8571 51.0637 55.8571 49.6429V35.3571C55.8571 33.9363 55.2927 32.5737 54.2881 31.5691C53.2834 30.5644 51.9208 30 50.5 30Z"
        fill="#7CC9D1" />
    <path
        d="M63 46.0714V49.6429C63 52.9581 61.683 56.1375 59.3388 58.4817C56.9946 60.8259 53.8152 62.1429 50.5 62.1429C47.1848 62.1429 44.0054 60.8259 41.6612 58.4817C39.317 56.1375 38 52.9581 38 49.6429V46.0714"
        fill="#7CC9D1" />
    <path
        d="M63 46.0714V49.6429C63 52.9581 61.683 56.1375 59.3388 58.4817C56.9946 60.8259 53.8152 62.1429 50.5 62.1429M50.5 62.1429C47.1848 62.1429 44.0054 60.8259 41.6612 58.4817C39.317 56.1375 38 52.9581 38 49.6429V46.0714M50.5 62.1429L50.5 69.2857M43.3571 69.2857H57.6429M50.5 30C49.0792 30 47.7166 30.5644 46.7119 31.5691C45.7073 32.5737 45.1429 33.9363 45.1429 35.3571V49.6429C45.1429 51.0637 45.7073 52.4263 46.7119 53.4309C47.7166 54.4356 49.0792 55 50.5 55C51.9208 55 53.2834 54.4356 54.2881 53.4309C55.2927 52.4263 55.8571 51.0637 55.8571 49.6429V35.3571C55.8571 33.9363 55.2927 32.5737 54.2881 31.5691C53.2834 30.5644 51.9208 30 50.5 30Z"
        stroke="white" stroke-width="2" stroke-linecap="round" stroke-linejoin="round" />
</svg>