<svg width="126" height="213" viewBox="0 0 126 213" fill="none" xmlns="http://www.w3.org/2000/svg">
<path id="Top" fill-rule="evenodd" clip-rule="evenodd" d="M108.444 7.11035e-06C48.5765 3.18502e-06 -3.07399e-06 46.8831 -6.98282e-06 106.499C-1.08916e-05 166.115 48.5765 212.998 108.444 212.998C117.778 212.998 125.344 165.317 125.344 106.499C125.344 47.6812 117.778 7.72234e-06 108.444 7.11035e-06ZM58.4264 14.9876C25.3121 32.3207 2.81672 66.4726 2.81672 106.499C2.81672 146.525 25.3121 180.677 58.4264 198.01C30.1416 179.534 11.2669 145.721 11.2669 106.499C11.2669 67.277 30.1415 33.4641 58.4264 14.9876ZM14.0836 106.499C14.0836 65.4727 35.1584 30.7351 65.8215 13.8234C39.8905 32.05 22.5338 66.5288 22.5338 106.499C22.5338 146.469 39.8905 180.948 65.8215 199.174C35.1584 182.263 14.0836 147.525 14.0836 106.499ZM72.9976 12.5744C44.9229 28.9535 25.3505 64.3331 25.3505 106.499C25.3505 148.665 44.9229 184.044 72.9977 200.423C66.5178 195.481 60.6282 189.222 55.5036 181.905C42.0644 162.717 33.8007 136.154 33.8007 106.499C33.8007 76.8436 42.0644 50.2804 55.5036 31.0923C60.6282 23.7754 66.5178 17.5172 72.9976 12.5744ZM57.8145 32.6946C64.1293 23.6786 71.577 16.3963 79.8042 11.2775C73.6771 16.4336 68.1503 23.1877 63.4128 31.1817C52.0485 50.3575 45.0676 76.8878 45.0676 106.499C45.0676 136.11 52.0485 162.64 63.4128 181.816C68.1503 189.81 73.6771 196.564 79.8042 201.72C71.577 196.601 64.1293 189.319 57.8145 180.303C44.7479 161.647 36.6174 135.661 36.6174 106.499C36.6174 77.3364 44.7479 51.3509 57.8145 32.6946ZM86.0983 10.0302C78.5055 15.1532 71.6234 22.8449 65.8391 32.6052C54.7755 51.2737 47.8843 77.2922 47.8843 106.499C47.8843 135.706 54.7755 161.724 65.8391 180.392C71.6235 190.153 78.5055 197.845 86.0983 202.967C80.5138 197.634 75.5269 190.38 71.3244 181.713C62.0374 162.56 56.3345 136.068 56.3345 106.499C56.3345 76.9297 62.0374 50.4374 71.3244 31.2845C75.5269 22.6176 80.5137 15.3639 86.0983 10.0302ZM73.8613 32.5023C78.9946 21.9158 85.1465 13.8288 91.8938 8.78644C87.0804 14.2112 82.8074 21.9451 79.2412 31.4011C72.031 50.5195 67.6014 76.969 67.6014 106.499C67.6014 136.029 72.031 162.478 79.2412 181.597C82.8073 191.053 87.0804 198.787 91.8938 204.211C85.1465 199.169 78.9946 191.082 73.8613 180.495C64.7981 161.804 59.1512 135.747 59.1512 106.499C59.1512 77.2503 64.7981 51.1938 73.8613 32.5023ZM97.1346 7.54167C96.1267 8.40622 95.1294 9.38766 94.145 10.4848C89.5839 15.5678 85.4113 23.0177 81.8784 32.3858C74.8162 51.1117 70.4181 77.211 70.4181 106.499C70.4181 135.787 74.8162 161.886 81.8783 180.612C85.4113 189.98 89.5839 197.43 94.1449 202.513C95.1294 203.61 96.1267 204.591 97.1346 205.456C96.8498 205.05 96.5691 204.631 96.2925 204.2C92.8128 198.771 89.7324 190.993 87.1663 181.467C82.0286 162.395 78.8683 135.992 78.8683 106.499C78.8683 77.0058 82.0286 50.6032 87.1663 31.5307C89.7325 22.0046 92.8129 14.2271 96.2925 8.7981C96.5691 8.36654 96.8498 7.94745 97.1346 7.54167ZM98.6674 10.305C100.255 7.82771 101.851 5.99791 103.43 4.76581C96.5442 18.2276 91.5436 58.6833 91.5436 106.499C91.5436 154.314 96.5441 194.77 103.43 208.232C101.851 207 100.255 205.17 98.6674 202.693C95.4073 197.606 92.4181 190.138 89.887 180.741C84.8302 161.97 81.685 135.823 81.685 106.499C81.685 77.1742 84.8302 51.0281 89.887 32.2562C92.4182 22.8601 95.4073 15.3915 98.6674 10.305ZM109.62 209.122C108.942 209.996 108.541 210.162 108.444 210.191C108.347 210.162 107.946 209.996 107.268 209.122C106.416 208.024 105.473 206.229 104.504 203.648C102.58 198.518 100.794 190.934 99.2758 181.368C96.2467 162.28 94.3603 135.808 94.3603 106.499C94.3603 77.1896 96.2467 50.718 99.2758 31.6299C100.794 22.0638 102.58 14.4796 104.504 9.34937C105.473 6.7686 106.416 4.97398 107.268 3.87578C107.946 3.00147 108.347 2.83608 108.444 2.80718C108.541 2.83608 108.942 3.00147 109.62 3.87578C110.472 4.97398 111.415 6.7686 112.383 9.34937C114.308 14.4796 116.094 22.0638 117.612 31.6299C120.641 50.718 122.528 77.1896 122.528 106.499C122.528 135.808 120.641 162.28 117.612 181.368C116.094 190.934 114.308 198.518 112.383 203.648C111.415 206.229 110.472 208.024 109.62 209.122Z" fill="url(#paint0_linear_388_2767)"/>
<defs>
<linearGradient id="paint0_linear_388_2767" x1="-6.42572" y1="113.033" x2="131.168" y2="104.978" gradientUnits="userSpaceOnUse">
<stop stop-color="white"/>
<stop offset="1" stop-color="white" stop-opacity="0"/>
</linearGradient>
</defs>
</svg>
