<svg width="31" height="28" viewBox="0 0 31 28" fill="none" xmlns="http://www.w3.org/2000/svg">
<path d="M29.906 13.6574C30.8657 12.5418 29.906 10.9506 29.906 10.9506L28.25 8.04688L20.7382 0.782948C20.1035 0.169495 19.0432 0.619278 19.0432 1.50199V6.8621C14.0772 6.78534 10.3463 8.08418 7.57374 10.0746C4.75779 12.0962 2.9636 14.807 1.858 17.4345C0.753415 20.0595 0.327736 22.6203 0.25995 24.3761C0.226522 25.242 0.278158 25.9566 0.402234 26.3933C0.433943 26.5048 0.476784 26.622 0.538368 26.7255C0.592582 26.8167 0.707269 26.9754 0.915654 27.0417C1.16639 27.1214 1.37921 27.0191 1.50256 26.9132C1.61389 26.8176 1.6887 26.6943 1.74047 26.5908L1.74705 26.5777L1.75234 26.5653L1.75284 26.5641L1.75411 26.5613L1.76432 26.5391C1.77418 26.518 1.79023 26.4845 1.81294 26.44C1.85837 26.3509 1.93042 26.2173 2.03287 26.049C2.23783 25.7123 2.56409 25.237 3.04199 24.6994C3.99659 23.6255 9.29321 19.8672 12.2932 18.3672C14.7932 16.8672 19.0432 15.8672 19.0432 15.8672V21.8672C19.0432 22.7337 20.0703 23.1901 20.7134 22.6094L29.906 13.6574Z" fill="white"/>
</svg>
