<svg width="22" height="24" viewBox="0 0 22 24" fill="none" xmlns="http://www.w3.org/2000/svg">
<g id="Video">
<g id="Iconly/Light outline/Video">
<g id="Video_2">
<path id="Vector" d="M11.5623 4.49976C13.7749 4.49976 15.3153 6.03373 15.4793 8.28409L17.8975 7.20184C18.9437 6.73449 20.0853 7.52857 20.1684 8.73524L20.1733 8.87626V15.5153C20.1733 16.7525 19.0704 17.6087 18.0182 17.2369L17.8971 17.1885L15.4793 16.1061C15.3149 18.3551 13.7714 19.8908 11.5623 19.8908H5.83584C3.49271 19.8908 1.9043 18.1717 1.9043 15.7028V8.68776C1.9043 6.21885 3.49271 4.49976 5.83584 4.49976H11.5623ZM11.5623 5.99976H5.83584C4.24596 5.99976 3.27449 7.05114 3.27449 8.68776V15.7028C3.27449 17.3394 4.24596 18.3908 5.83584 18.3908H11.5623C13.1483 18.3908 14.1237 17.3366 14.1237 15.7028L14.1235 15.0172C14.1232 15.0065 14.1231 14.9958 14.1233 14.9851L14.1237 8.68776C14.1237 7.05153 13.1516 5.99976 11.5623 5.99976ZM18.4775 8.57135L18.4155 8.5905L15.4939 9.89676V14.4928L18.4152 15.7998C18.5801 15.8735 18.7583 15.7642 18.7959 15.5854L18.8031 15.5153V8.87626C18.8031 8.68146 18.6429 8.54197 18.4775 8.57135Z" fill="#666666"/>
</g>
</g>
</g>
</svg>
