<svg width="16" height="16" viewBox="0 0 16 16" fill="none" xmlns="http://www.w3.org/2000/svg">
<g id="Voice">
<g id="Iconly/Light-Outline/Voice">
<g id="Voice_2">
<path id="Combined-Shape" fill-rule="evenodd" clip-rule="evenodd" d="M13.1662 6.53401C13.4428 6.53401 13.6662 6.75801 13.6662 7.03401C13.6662 10.0955 11.3164 12.6157 8.33305 12.8713L8.33284 14.5001C8.33284 14.7761 8.10884 15.0001 7.83284 15.0001C7.55684 15.0001 7.33284 14.7761 7.33284 14.5001L7.3333 12.8714C4.3496 12.6161 1.99951 10.0957 1.99951 7.03401C1.99951 6.75801 2.22351 6.53401 2.49951 6.53401C2.77618 6.53401 2.99951 6.75801 2.99951 7.03401C2.99951 9.71268 5.16751 11.8927 7.83284 11.8927C10.4982 11.8927 12.6662 9.71268 12.6662 7.03401C12.6662 6.75801 12.8902 6.53401 13.1662 6.53401ZM7.83284 0.666748C9.60151 0.666748 11.0408 2.11141 11.0408 3.88741V7.01275C11.0408 8.78808 9.60151 10.2327 7.83284 10.2327C6.06418 10.2327 4.62484 8.78808 4.62484 7.01275V3.88741C4.62484 2.11141 6.06418 0.666748 7.83284 0.666748ZM7.83284 1.66675C6.61551 1.66675 5.62485 2.66275 5.62485 3.88741V7.01275C5.62485 8.23608 6.61551 9.23275 7.83284 9.23275C9.05018 9.23275 10.0408 8.23608 10.0408 7.01275V3.88741C10.0408 2.66275 9.05018 1.66675 7.83284 1.66675Z" fill="black" fill-opacity="0.46"/>
</g>
</g>
</g>
</svg>
